<?xml version="1.0" standalone="no"?>
<!DOCTYPE svg PUBLIC "-//W3C//DTD SVG 1.1//EN" "http://www.w3.org/Graphics/SVG/1.1/DTD/svg11.dtd">
<svg xmlns="http://www.w3.org/2000/svg">
<defs >
<font id="NotoSans" horiz-adv-x="526" ><font-face
    font-family="Noto Sans"
    units-per-em="1000"
    panose-1="2 11 5 2 4 5 4 9 2 4"
    ascent="1069"
    descent="-293"
    alphabetic="0" />
<glyph unicode=" " horiz-adv-x="260" />
<glyph unicode="!" horiz-adv-x="287" d="M67 232L149 714H318L193 232H67ZM88 -13Q46 -13 29 7T11 53Q11 95 36 125T113 155Q148 155 167 137T187 87Q187 42 161 15T88 -13Z" />
<glyph unicode="&quot;" horiz-adv-x="453" d="M295 456L331 714H466L392 456H295ZM98 456L133 714H268L194 456H98Z" />
<glyph unicode="#" horiz-adv-x="646" d="M81 0L136 199H20L29 300H164L198 413H75L84 515H225L283 714H389L332 515H429L486 714H591L534 515H651L642 413H506L472 300H598L589 199H444L387 0H280L337 199H242L186 0H81ZM270 300H366L400 413H304L270 300Z" />
<glyph unicode="$" horiz-adv-x="551" d="M198 40Q147 43 104 53T25 82V212Q63 191 113 174T222 155L257 312Q214 329 179 352T122 408T101 490Q101 550 131 592T213 658T334 686L351 760H419L403 686Q444 681 478 671T547 642L495 529Q467 543 437 553T377 565L346
419Q391 402 427 380T484 326T505 242Q505 188 481 144T403 73T264 39L245 -58H177L198 40ZM290 157Q311 160 326 169T350 192T359 227Q359 242 354 253T339 273T318 285L290 157ZM309 565Q292 563 278 556T254 535T245 499Q245 487 249 477T262 459T284 445L309
565Z" />
<glyph unicode="%" horiz-adv-x="856" d="M113 0L644 714H759L230 0H113ZM194 276Q127 276 92 317T56 432Q56 467 62 507T83 585T122 655T180 705T261 724Q328 724 364 685T401 569Q401 535 395 495T373 417T334 346T276 295T194 276ZM203 377Q217 377 229 389T251
423T267 471T277 524T281 575Q281 599 274 610T253 622Q240 622 228 610T207 578T191 532T180 478T176 424Q176 401 183 389T203 377ZM616 -9Q546 -9 511 29T475 138Q475 180 482 223T504 304T543 373T601 421T680 439Q747 439 783 401T820 288Q820 252 814 211T792
131T754 61T696 10T616 -9ZM622 92Q636 92 648 104T670 138T686 186T696 239T700 290Q700 314 693 325T672 337Q659 337 647 325T626 293T610 247T599 193T595 139Q595 116 602 104T622 92Z" />
<glyph unicode="&amp;" horiz-adv-x="708" d="M244 -10Q143 -10 88 38T33 175Q33 225 51 263T108 333T205 394Q186 426 177 457T168 520Q168 588 196 633T272 702T380 725Q443 725 482 704T539 649T557 575Q557 526 536 487T475 419T379 367L474 239Q502 274 519
308T552 383H698Q678 336 656 293T606 212T547 140L647 0H476L441 48Q402 22 355 6T244 -10ZM266 115Q288 115 307 119T343 129T374 144L264 304Q241 291 224 275T197 239T187 189Q187 170 196 153T223 126T266 115ZM323 449Q343 459 360 470T391 494T412 523T420
558Q420 586 406 598T371 611Q349 611 334 600T311 571T303 530Q303 508 309 486T323 449Z" />
<glyph unicode="&apos;" horiz-adv-x="255" d="M98 456L133 714H268L194 456H98Z" />
<glyph unicode="(" horiz-adv-x="339" d="M109 -158Q85 -115 69 -67T44 32T36 137Q36 224 52 301T99 450T176 586T282 714H410Q357 656 313 591T235 454T184 302T166 132Q166 81 173 31T192 -66T223 -158H109Z" />
<glyph unicode=")" horiz-adv-x="341" d="M-70 -158Q-17 -100 27 -35T105 102T156 254T174 424Q174 475 167 528T148 631T117 726H231Q256 683 272 632T296 527T304 419Q304 332 289 254T242 105T165 -31T59 -158H-70Z" />
<glyph unicode="*" horiz-adv-x="546" d="M351 281L306 447L209 310L111 389L245 511L85 557L126 670L291 586L308 765L434 741L376 569L565 582L557 461L391 482L469 317L351 281Z" />
<glyph unicode="+" horiz-adv-x="572" d="M349 406H538V299H349V111H242V299H53V406H242V596H349V406Z" />
<glyph unicode="," horiz-adv-x="286" d="M-48 -129Q-30 -89 -13 -46T19 40T47 116H188L192 105Q177 70 156 30T111 -51T64 -129H-48Z" />
<glyph unicode="-" horiz-adv-x="323" d="M17 206L43 330H300L274 206H17Z" />
<glyph unicode="." horiz-adv-x="286" d="M80 -13Q47 -13 28 3T8 53Q8 101 37 128T110 155Q143 155 163 138T183 88Q183 36 156 12T80 -13Z" />
<glyph unicode="/" horiz-adv-x="424" d="M-45 -6L360 720H497L93 -6H-45Z" />
<glyph unicode="0" horiz-adv-x="551" d="M229 -10Q128 -10 80 52T32 228Q32 293 41 355T68 472T112 574T174 654T252 706T347 725Q393 725 429 712T490 670T529 598T542 494Q542 431 534 369T510 251T469 147T409 64T329 10T229 -10ZM241 112Q265 112 285 129T323
177T353 246T375 328T389 416T394 499Q394 553 379 578T334 603Q309 603 288 584T250 533T220 461T198 378T185 296T180 225Q180 170 193 141T241 112Z" />
<glyph unicode="1" horiz-adv-x="551" d="M275 405Q279 422 285 446T298 497T312 545Q303 538 284 524T249 499L154 439L89 544L365 714H487L336 0H187L275 405Z" />
<glyph unicode="2" horiz-adv-x="551" d="M-24 0L-3 104L230 311Q274 350 303 380T351 435T377 481T385 523Q385 560 365 579T311 598Q287 598 264 590T217 566T161 524L90 623Q140 666 199 695T335 724Q405 724 449 699T515 635T536 550Q536 487 509 435T434
337T326 240L195 132V127H472L446 0H-24Z" />
<glyph unicode="3" horiz-adv-x="551" d="M196 -10Q141 -10 92 0T7 29V159Q48 135 96 123T189 110Q225 110 254 117T304 138T337 175T349 227Q349 251 338 270T299 300T223 311H156L178 419H214Q246 419 277 425T333 444T374 479T389 533Q389 562 370 582T309
602Q265 602 230 586T169 553L107 653Q155 685 208 704T341 724Q407 724 451 703T517 645T539 561Q539 512 519 472T460 406T365 369V365Q419 355 457 319T495 215Q495 173 478 133T424 60T332 9T196 -10Z" />
<glyph unicode="4" horiz-adv-x="551" d="M245 0L276 148H-12L11 262L387 714H539L444 265H527L502 148H419L388 0H245ZM149 265H301L329 386Q335 412 342 442T357 497T369 535H364Q357 522 347 507T325 477T302 447L149 265Z" />
<glyph unicode="5" horiz-adv-x="551" d="M199 -10Q161 -10 126 -5T63 9T13 30V161Q49 141 93 127T185 113Q230 113 260 124T310 154T337 196T345 242Q345 280 322 307T236 334Q206 334 178 329T132 318L81 356L182 714H551L524 586H285L242 443Q254 445 269 447T304
450Q358 450 402 430T471 367T497 260Q497 205 480 156T426 70T333 11T199 -10Z" />
<glyph unicode="6" horiz-adv-x="551" d="M252 -10Q183 -10 137 18T67 99T43 229Q43 287 53 345T84 457T134 557T201 637Q234 667 271 686T354 715T454 725Q485 725 514 721T563 712L538 592Q520 597 495 600T445 604Q379 604 331 579T251 505T199 383H203Q220
406 241 424T291 453T355 464Q429 464 472 418T515 283Q515 241 503 191T460 95T380 20T252 -10ZM259 111Q286 111 306 125T340 162T361 213T368 272Q368 307 352 327T302 348Q274 348 250 333T211 296T191 251Q190 244 189 237T188 222T187 206Q187 185 192 168T206
138T228 118T259 111Z" />
<glyph unicode="7" horiz-adv-x="551" d="M38 0L398 587H91L118 714H594L574 619L207 0H38Z" />
<glyph unicode="8" horiz-adv-x="551" d="M251 -10Q177 -10 127 14T52 78T27 171Q27 222 47 261T105 330T197 379Q177 395 159 416T128 464T116 525Q116 580 143 625T222 698T352 725Q419 725 462 703T528 643T550 562Q550 510 529 474T473 413T398 374Q424 357
448 333T488 276T504 196Q504 144 477 97T394 20T251 -10ZM262 101Q296 101 318 114T350 149T361 195Q361 223 351 244T324 282T284 314Q247 300 222 282T185 240T172 187Q172 148 196 125T262 101ZM318 436Q346 447 366 462T397 498T408 544Q408 577 389 596T339
615Q313 615 295 604T268 575T258 534Q258 499 274 475T318 436Z" />
<glyph unicode="9" horiz-adv-x="551" d="M159 -10Q126 -10 94 -5T42 6V131Q61 124 90 118T153 111Q207 111 245 129T308 179T349 249T375 328H371Q355 305 335 288T288 261T227 251Q170 251 133 276T78 344T60 441Q60 481 72 529T115 622T198 696T331 725Q392
725 437 701T508 624T533 489Q533 436 525 380T499 269T457 167T397 83Q376 61 351 44T297 15T234 -3T159 -10ZM277 367Q306 367 328 382T364 421T382 466Q384 477 385 488T386 511Q386 539 379 559T356 592T315 604Q288 604 268 591T234 555T214 506T207 453Q207
411 225 389T277 367Z" />
<glyph unicode=":" horiz-adv-x="286" d="M169 389Q136 389 117 405T97 454Q97 488 109 510T145 544T199 556Q232 556 252 540T272 490Q272 438 245 414T169 389ZM80 -13Q47 -13 28 3T8 53Q8 101 37 128T110 155Q143 155 163 138T183 88Q183 36 156 12T80 -13Z" />
<glyph unicode=";" horiz-adv-x="286" d="M-54 -129Q-36 -89 -19 -46T13 40T41 116H182L186 105Q171 70 150 30T105 -51T58 -129H-54ZM169 389Q136 389 117 405T97 454Q97 488 109 510T145 544T199 556Q232 556 252 540T272 490Q272 438 245 414T169 389Z" />
<glyph unicode="&lt;" horiz-adv-x="572" d="M538 99L53 313V383L538 625V508L204 353L538 216V99Z" />
<glyph unicode="=" horiz-adv-x="572" d="M53 394V500H538V394H53ZM53 204V311H538V204H53Z" />
<glyph unicode="&gt;" horiz-adv-x="572" d="M53 216L387 353L53 508V625L538 383V313L53 99V216Z" />
<glyph unicode="?" horiz-adv-x="459" d="M127 237Q136 283 150 318T189 381T254 437Q287 459 307 475T337 508T347 546Q347 573 332 588T282 604Q247 604 212 590T132 555L87 663Q132 688 186 706T304 724Q392 724 441 681T491 562Q491 512 472 477T420 413T344
357Q315 338 298 322T270 286T253 237H127ZM153 -13Q111 -13 94 8T77 56Q77 92 99 122T177 153Q210 153 230 135T250 82Q250 41 224 14T153 -13Z" />
<glyph unicode="@" horiz-adv-x="856" d="M391 -91Q306 -91 241 -66T133 6T67 113T45 244Q45 335 69 409T138 540T242 636T370 694T514 714Q618 714 692 678T806 574T846 410Q846 363 836 318T805 233T756 164T688 117T604 100Q565 100 536 117T498 172H493Q472
139 444 120T368 100Q313 100 275 135T237 251Q237 291 248 330T281 405T334 466T405 508T492 523Q546 523 584 515T652 496L600 291Q595 269 591 254T587 222Q587 204 595 197T615 189Q636 189 655 201T689 236T715 286T732 346T738 408Q738 474 713 522T635 596T502
622Q443 622 390 606T294 558T220 481T171 379T154 255Q154 187 179 129T259 37T403 2Q465 2 515 13T618 44V-47Q571 -66 515 -78T391 -91ZM394 189Q433 189 457 225T498 321L526 429Q517 431 508 432T486 434Q451 434 425 417T382 372T357 314T348 257Q348 219
362 204T394 189Z" />
<glyph unicode="A" horiz-adv-x="628" d="M-60 0L314 714H496L568 0H423L411 170H180L96 0H-60ZM241 297H404L391 481Q389 510 387 540T386 601H384Q374 574 362 548T335 490L241 297Z" />
<glyph unicode="B" horiz-adv-x="620" d="M26 0L177 714H385Q453 714 504 698T583 647T611 555Q611 506 593 469T540 408T455 372V368Q504 355 533 321T562 233Q562 152 525 101T425 25T281 0H26ZM289 125Q326 125 353 137T395 173T411 232Q411 270 389 290T322
311H241L201 125H289ZM339 431Q375 431 401 440T442 470T457 523Q457 556 437 573T374 590H300L266 431H339Z" />
<glyph unicode="C" horiz-adv-x="613" d="M319 -10Q234 -10 176 24T89 120T59 266Q59 330 73 395T117 520T192 625T300 698T441 725Q504 725 555 711T652 670L594 550Q556 572 520 584T441 597Q396 597 360 579T297 529T251 456T223 368T214 273Q214 198 249 158T347
117Q390 117 430 127T518 155V29Q471 9 423 0T319 -10Z" />
<glyph unicode="D" horiz-adv-x="677" d="M26 0L177 714H366Q497 714 571 645T646 438Q646 359 629 291T577 170T492 78T378 20T235 0H26ZM254 126Q299 126 336 141T402 183T451 248T481 332T492 432Q492 513 456 551T356 589H302L204 126H254Z" />
<glyph unicode="E" horiz-adv-x="543" d="M26 0L177 714H577L550 589H302L269 433H501L474 308H242L203 127H452L426 0H26Z" />
<glyph unicode="F" horiz-adv-x="533" d="M26 0L177 714H575L548 589H301L263 407H493L466 281H235L177 0H26Z" />
<glyph unicode="G" horiz-adv-x="690" d="M328 -10Q205 -10 132 61T59 269Q59 341 76 408T126 533T208 634T321 701T464 725Q527 725 581 713T679 677L621 554Q588 572 549 584T463 597Q400 597 354 569T276 493T230 389T214 273Q214 224 229 190T273 137T348
118Q375 118 395 121T436 129L469 280H346L373 402H644L564 29Q516 13 459 2T328 -10Z" />
<glyph unicode="H" horiz-adv-x="701" d="M26 0L177 714H328L270 435H496L555 714H705L554 0H404L468 307H242L177 0H26Z" />
<glyph unicode="I" horiz-adv-x="383" d="M-29 0L-11 86L80 126L178 588L104 628L122 714H438L420 628L327 588L229 126L305 86L287 0H-29Z" />
<glyph unicode="J" horiz-adv-x="334" d="M-65 -211Q-90 -211 -115 -208T-158 -198L-157 -73Q-140 -77 -121 -80T-78 -84Q-47 -84 -24 -73T17 -35T44 38L189 714H340L192 20Q174 -64 142 -114T59 -188T-65 -211Z" />
<glyph unicode="K" horiz-adv-x="613" d="M26 0L177 714H326L251 369L327 471L529 714H705L415 372L557 0H392L289 289L228 255L175 0H26Z" />
<glyph unicode="L" horiz-adv-x="518" d="M26 0L177 714H326L201 125H451L425 0H26Z" />
<glyph unicode="M" horiz-adv-x="880" d="M26 0L177 714H374L406 180H410L678 714H885L734 0H597L668 338Q675 372 684 410T703 486T721 553H717L439 0H302L272 553H268Q266 532 260 496T247 416T230 332L160 0H26Z" />
<glyph unicode="N" horiz-adv-x="758" d="M25 0L176 714H349L520 191H523Q526 214 531 247T542 315T554 378L626 714H763L612 0H439L267 537H263Q262 525 259 502T252 449T243 389T232 333L162 0H25Z" />
<glyph unicode="O" horiz-adv-x="731" d="M330 -10Q241 -10 181 24T90 120T59 266Q59 324 70 380T101 487T154 582T228 657T322 707T436 725Q564 725 632 650T700 448Q700 390 690 334T660 226T609 132T537 57T445 8T330 -10ZM341 117Q371 117 398 129T447 163T488
215T518 282T538 361T545 447Q545 518 513 558T424 598Q392 598 364 586T313 550T271 496T240 428T221 350T214 267Q214 219 229 186T272 135T341 117Z" />
<glyph unicode="P" horiz-adv-x="610" d="M26 0L177 714H376Q463 714 515 688T591 615T615 506Q615 442 592 395T526 317T427 270T304 254H228L175 0H26ZM316 378Q361 378 394 392T446 435T465 502Q465 547 441 568T370 590H300L255 378H316Z" />
<glyph unicode="Q" horiz-adv-x="731" d="M334 -10Q331 -10 328 -10T321 -10Q237 -10 179 24T90 120T59 266Q59 324 70 380T102 487T154 582T228 657T322 707T438 725Q565 725 632 650T700 448Q700 394 691 342T664 241T619 152T557 78T476 25L599 -170H424L334
-10ZM336 119Q368 119 395 131T446 165T488 217T519 284T538 362T545 448Q545 520 514 558T426 597Q394 597 366 585T315 551T273 499T241 432T221 353T214 265Q214 218 228 186T270 136T336 119Z" />
<glyph unicode="R" horiz-adv-x="620" d="M26 0L177 714H353Q471 714 532 666T594 524Q594 464 574 421T520 349T440 305L565 0H400L302 274H235L177 0H26ZM306 392Q337 392 362 399T405 422T432 461T442 514Q442 554 420 574T348 595H303L260 392H306Z" />
<glyph unicode="S" horiz-adv-x="530" d="M194 -10Q140 -10 96 2T20 34V168Q64 143 107 129T195 115Q220 115 241 119T277 134T302 158T311 193Q311 221 300 240T270 275T225 309Q195 331 167 358T121 421T103 507Q103 555 120 594T169 663T247 708T348 724Q404
724 451 712T542 676L489 562Q451 580 417 589T348 598Q328 598 312 593T283 577T263 551T256 518Q256 493 266 475T296 442T344 407Q384 381 410 352T449 288T462 211Q462 155 441 114T383 45T298 4T194 -10Z" />
<glyph unicode="T" horiz-adv-x="532" d="M129 0L252 587H81L109 714H603L575 587H404L281 0H129Z" />
<glyph unicode="U" horiz-adv-x="692" d="M299 -10Q225 -10 173 15T95 86T68 193Q68 209 70 229T76 271L171 714H323L228 272Q225 254 223 236T220 203Q220 163 243 141T312 118Q352 118 379 134T424 183T454 267L549 714H700L602 253Q585 169 549 111T452 21T299 -10Z" />
<glyph unicode="V" horiz-adv-x="590" d="M152 0L90 714H234L259 284Q260 264 260 239T261 190T258 146H262Q273 179 286 214T316 284L526 714H680L315 0H152Z" />
<glyph unicode="W" horiz-adv-x="894" d="M112 0L90 714H230L233 324Q233 287 232 241T226 155H230Q244 194 261 238T291 314L471 714H603L613 314Q614 297 614 270T612 213T609 155H613Q622 183 633 213T655 273T676 325L837 714H988L672 0H503L495 325Q494 369
494 397T493 449T494 497H490Q477 457 464 421T435 351L277 0H112Z" />
<glyph unicode="X" horiz-adv-x="610" d="M-57 0L224 379L108 714H267L341 468L516 714H688L422 365L553 0H387L304 269L113 0H-57Z" />
<glyph unicode="Y" horiz-adv-x="564" d="M148 0L206 273L91 714H243L306 425L489 714H656L354 273L296 0H148Z" />
<glyph unicode="Z" horiz-adv-x="536" d="M-30 0L-11 98L368 589H103L129 714H586L566 615L184 125H475L449 0H-30Z" />
<glyph unicode="[" horiz-adv-x="331" d="M-18 -158L168 714H399L377 611H272L130 -55H235L213 -158H-18Z" />
<glyph unicode="\" horiz-adv-x="424" d="M220 -6L108 720H231L346 -6H220Z" />
<glyph unicode="]" horiz-adv-x="331" d="M-67 -158L-45 -55H59L201 611H96L118 714H349L163 -158H-67Z" />
<glyph unicode="^" horiz-adv-x="551" d="M17 254L319 718H391L526 254H417L332 563L136 254H17Z" />
<glyph unicode="_" horiz-adv-x="400" d="M-91 -158L-76 -90H325L310 -158H-91Z" />
<glyph unicode="`" horiz-adv-x="324" d="M263 606Q242 626 219 652T176 705T145 756V766H299Q305 744 313 719T332 668T355 618V606H263Z" />
<glyph unicode="a" horiz-adv-x="592" d="M196 -10Q154 -10 119 10T64 74T44 190Q44 238 54 289T85 388T137 474T208 534T296 556Q330 556 354 546T397 516T427 473H431L460 546H578L462 0H343L351 75H347Q329 52 307 33T258 2T196 -10ZM255 111Q283 111 307 133T351
193T380 275Q384 295 386 314T389 350Q389 388 373 411T327 435Q305 435 286 422T250 385T222 332T204 267T197 196Q197 154 212 133T255 111Z" />
<glyph unicode="b" horiz-adv-x="595" d="M298 -10Q264 -10 238 0T194 28T163 70H159L131 0H18L179 760H326L296 619Q292 599 285 573T270 520T255 473H259Q277 495 296 514T339 544T397 556Q437 556 472 537T529 474T551 358Q551 305 540 252T507 152T454 69T384
11T298 -10ZM273 109Q295 109 314 123T349 161T377 216T395 282T402 351Q402 394 386 415T338 437Q314 437 295 425T262 392T236 346T219 293T209 240T205 195Q205 156 223 133T273 109Z" />
<glyph unicode="c" horiz-adv-x="484" d="M247 -10Q190 -10 144 12T71 83T44 206Q44 264 57 316T95 413T155 489T235 538T333 556Q379 556 418 548T495 522L448 409Q425 419 397 427T339 436Q305 436 278 416T233 364T205 292T195 214Q195 178 205 156T233 122T278
111Q313 111 345 122T412 150V29Q378 11 338 1T247 -10Z" />
<glyph unicode="d" horiz-adv-x="594" d="M198 -10Q159 -10 124 9T66 72T44 189Q44 242 55 295T88 395T141 478T211 535T297 556Q330 556 352 546T391 517T421 476H425Q425 479 426 497T431 540T438 585L475 760H622L461 0H349L358 71H354Q335 47 312 29T261 1T198
-10ZM260 109Q283 109 301 121T334 154T359 201T376 254T386 306T390 351Q390 390 372 413T322 437Q300 437 281 423T246 385T218 330T200 265T193 195Q193 152 210 131T260 109Z" />
<glyph unicode="e" horiz-adv-x="557" d="M260 -10Q196 -10 148 13T72 83T44 201Q44 270 63 333T121 447T217 526T349 556Q441 556 486 514T532 407Q532 364 513 329T455 269T357 231T218 217H193Q192 211 192 207T192 197Q192 153 217 127T289 101Q332 101 367
111T450 143V32Q407 11 363 1T260 -10ZM231 316Q288 316 323 328T374 360T391 404Q391 427 378 438T340 450Q313 450 286 433T239 386T209 316H231Z" />
<glyph unicode="f" horiz-adv-x="374" d="M-19 -240Q-43 -240 -66 -237T-106 -228V-109Q-92 -113 -78 -116T-49 -119Q-13 -119 6 -99T34 -37L133 434H48L63 505L158 546L168 587Q179 636 196 669T237 724T292 755T364 765Q398 765 431 759T485 741L447 636Q433
642 417 646T382 650Q357 650 341 636T317 588L307 546H415L390 434H283L178 -59Q167 -113 144 -154T81 -217T-19 -240Z" />
<glyph unicode="g" horiz-adv-x="596" d="M189 -240Q133 -240 92 -231T18 -208V-82Q41 -94 68 -103T125 -118T185 -124Q237 -124 269 -99T312 -25L319 3Q322 19 327 38T337 72H333Q316 50 296 33T250 4T190 -7Q148 -7 115 13T63 76T44 189Q44 236 54 287T84 386T135
472T205 533T296 556Q329 556 353 546T394 518T427 473H431L460 546H578L458 -20Q440 -102 402 -150T310 -219T189 -240ZM255 111Q273 111 289 121T321 148T348 189T370 239T384 294T389 350Q389 388 374 411T327 435Q304 435 285 422T249 385T221 331T203 266T197
196Q197 154 212 133T255 111Z" />
<glyph unicode="h" horiz-adv-x="604" d="M18 0L179 760H326L298 628Q294 606 286 577T270 521T255 473H259Q279 498 302 516T352 545T412 556Q459 556 490 537T537 482T553 399Q553 381 550 359T542 311L477 0H330L397 319Q401 336 403 350T405 377Q405 408 392
422T352 437Q319 437 292 409T246 332T213 226L165 0H18Z" />
<glyph unicode="i" horiz-adv-x="299" d="M18 0L133 546H284L167 0H18ZM232 613Q199 613 178 627T156 674Q156 701 167 720T198 750T247 761Q279 761 300 747T321 701Q321 661 298 637T232 613Z" />
<glyph unicode="j" horiz-adv-x="299" d="M-42 -240Q-65 -240 -89 -237T-128 -228V-109Q-112 -114 -99 -116T-72 -119Q-52 -119 -35 -111T-6 -84T12 -37L136 546H285L157 -58Q147 -108 124 -149T61 -215T-42 -240ZM234 613Q202 613 181 627T159 674Q159 701 169
720T200 750T249 761Q281 761 302 747T323 701Q323 661 300 637T234 613Z" />
<glyph unicode="k" horiz-adv-x="568" d="M18 0L179 760H326L254 421Q249 396 239 364T224 314H228L449 546H617L374 300L513 0H349L260 205L201 170L165 0H18Z" />
<glyph unicode="l" horiz-adv-x="299" d="M17 0L179 760H328L167 0H17Z" />
<glyph unicode="m" horiz-adv-x="905" d="M18 0L134 546H246L236 445H240Q261 478 286 503T343 542T412 556Q468 556 499 527T540 445H544Q565 478 590 503T648 542T718 556Q786 556 820 514T854 399Q854 381 851 359T843 311L778 0H631L698 319Q702 336 704 350T706
377Q706 408 694 422T658 437Q633 437 612 421T573 376T542 309T519 227L472 0H325L392 319Q396 336 398 350T400 377Q400 408 388 422T352 437Q327 437 306 421T267 375T236 308T213 226L165 0H18Z" />
<glyph unicode="n" horiz-adv-x="604" d="M18 0L134 546H246L236 445H240Q261 478 286 503T343 542T412 556Q459 556 490 537T537 482T553 399Q553 381 550 359T542 311L477 0H330L397 319Q401 336 403 350T405 377Q405 408 392 422T352 437Q319 437 292 409T246
332T213 226L165 0H18Z" />
<glyph unicode="o" horiz-adv-x="585" d="M253 -10Q192 -10 145 15T71 88T44 200Q44 258 55 311T90 408T148 486T229 537T334 556Q398 556 444 531T515 457T541 340Q541 285 530 233T497 137T440 60T359 9T253 -10ZM265 110Q289 110 309 122T345 157T371 208T387
271T393 340Q393 368 387 389T365 423T323 436Q296 436 275 421T239 382T213 326T197 263T192 200Q192 156 210 133T265 110Z" />
<glyph unicode="p" horiz-adv-x="595" d="M-33 -240L134 546H246L238 463H242Q259 487 281 508T333 542T397 556Q437 556 472 537T529 474T551 357Q551 304 540 251T507 151T454 68T384 11T298 -10Q265 -10 242 0T203 29T174 70H170Q167 30 162 -3T149 -74L114
-240H-33ZM273 109Q295 109 314 123T349 161T377 216T395 282T402 351Q402 394 386 415T338 437Q314 437 295 425T262 393T236 346T219 293T209 241T205 195Q205 156 223 133T273 109Z" />
<glyph unicode="q" horiz-adv-x="594" d="M299 -75Q303 -57 310 -31T325 24T340 73H336Q319 51 298 32T251 2T191 -10Q155 -10 122 9T66 72T44 188Q44 241 55 294T88 394T141 477T211 535T297 556Q330 556 354 547T397 519T432 476H436L464 546H577L410 -240H263L299
-75ZM261 109Q284 109 302 121T335 154T360 201T377 254T387 306T390 351Q390 390 372 413T322 437Q300 437 281 423T246 385T218 330T200 265T193 195Q193 152 211 131T261 109Z" />
<glyph unicode="r" horiz-adv-x="422" d="M18 0L133 546H254L244 452H248Q270 486 294 509T347 544T413 556Q425 556 438 555T459 551L427 406Q416 411 402 413T371 415Q343 415 319 404T275 370T242 316T219 244L167 0H18Z" />
<glyph unicode="s" horiz-adv-x="475" d="M176 -10Q123 -10 83 -2T11 22V146Q49 125 87 114T167 103Q190 103 210 108T242 125T255 156Q255 171 249 182T225 206T173 238Q138 258 115 280T80 329T68 390Q68 440 91 477T162 535T277 556Q329 556 373 544T455 510L408
408Q381 424 348 436T279 449Q252 449 236 436T219 400Q219 388 226 378T249 357T293 331Q330 312 355 290T393 241T407 178Q407 115 379 73T298 11T176 -10Z" />
<glyph unicode="t" horiz-adv-x="410" d="M200 -10Q136 -10 97 17T58 116Q58 128 59 142T64 171L120 434H46L60 506L156 547L220 662H315L291 546H429L405 434H267L211 171Q210 164 209 157T208 145Q208 126 220 118T251 109Q271 109 289 113T330 126V16Q307 5
274 -2T200 -10Z" />
<glyph unicode="u" horiz-adv-x="604" d="M193 -10Q146 -10 115 9T69 64T54 147Q54 165 57 193T66 251L128 546H275L208 227Q204 211 202 196T200 169Q200 138 213 124T253 109Q287 109 313 137T360 214T392 320L440 546H587L471 0H359L369 101H364Q343 69 318
44T262 4T193 -10Z" />
<glyph unicode="v" horiz-adv-x="512" d="M117 0L50 546H194L216 260Q217 248 217 228T218 187T219 147H224Q230 164 237 184T253 224T267 256L412 546H570L275 0H117Z" />
<glyph unicode="w" horiz-adv-x="788" d="M86 0L61 546H198L200 304Q200 264 200 225T195 139H199Q206 164 217 194T237 250T251 284L364 546H524V284Q524 250 524 215T519 139H524Q531 162 541 193T563 254T582 304L689 546H839L580 0H419L416 254Q416 275 416
304T418 365T421 420H415Q407 396 397 367T376 310T358 264L244 0H86Z" />
<glyph unicode="x" horiz-adv-x="534" d="M-50 0L182 280L75 546H235L290 376L407 546H583L358 272L473 0H311L252 179L125 0H-50Z" />
<glyph unicode="y" horiz-adv-x="519" d="M3 -240Q-23 -240 -40 -238T-69 -231V-114Q-56 -116 -43 -118T-12 -120Q35 -120 65 -93T117 -24L130 0L50 546H194L221 293Q224 271 225 245T226 195T227 150H231Q238 167 245 187T261 231T284 283L411 546H571L239 -78Q210
-133 174 -169T95 -222T3 -240Z" />
<glyph unicode="z" horiz-adv-x="469" d="M-18 0L-1 89L279 432H85L111 546H479L458 447L183 115H396L372 0H-18Z" />
<glyph unicode="{" horiz-adv-x="355" d="M222 -158Q137 -158 98 -126T59 -33Q59 -17 61 -2T67 32L87 124Q89 134 90 142T92 158Q92 191 71 208T-1 226L22 340Q81 340 111 360T151 428L180 562Q191 613 212 646T273 697T373 714H419L395 602Q356 601 334 588T301
534L272 396Q260 342 227 315T139 280V277Q181 265 200 237T219 167Q219 157 217 145T213 121L194 32Q192 23 191 15T189 -1Q189 -26 206 -36T252 -46V-158H222Z" />
<glyph unicode="|" horiz-adv-x="551" d="M222 -227V757H329V-227H222Z" />
<glyph unicode="}" horiz-adv-x="355" d="M-51 -46Q-17 -45 3 -40T34 -19T51 22L80 160Q92 214 125 241T213 275V279Q171 292 152 319T133 389Q133 399 135 411T140 435L159 524Q162 534 163 542T164 557Q164 581 146 591T90 602L111 714H132Q190 714 225 698T277
655T294 589Q294 573 292 558T285 524L265 431Q263 421 262 413T260 398Q260 365 284 348T357 330L334 216Q275 216 244 196T201 128L172 -6Q161 -58 138 -91T76 -141T-26 -158H-51V-46Z" />
<glyph unicode="~" horiz-adv-x="572" d="M278 301Q241 317 216 322T167 328Q139 328 109 311T53 269V382Q78 408 109 421T178 435Q207 435 236 430T313 404Q350 388 376 383T424 377Q453 377 483 394T538 436V323Q513 297 482 284T413 270Q384 270 355 276T278 301Z" />
<glyph unicode="&#xa0;" horiz-adv-x="260" />
<glyph unicode="&#xa1;" horiz-adv-x="286" d="M-36 -181L89 296H207L130 -181H-36ZM168 380Q135 380 115 398T95 451Q95 492 121 519T192 546Q234 546 251 525T268 477Q268 441 246 411T168 380Z" />
<glyph unicode="&#xa2;" horiz-adv-x="551" d="M213 93Q155 109 118 154T80 285Q80 339 90 389T121 484T172 562T241 618T328 647L344 724H436L419 647Q451 643 477 635T529 615L484 503Q458 514 433 522T375 531Q340 531 313 511T267 457T239 382T229 297Q229
251 251 227T313 203Q350 203 381 214T447 243V123Q416 107 381 97T301 84L281 -10H189L213 93Z" />
<glyph unicode="&#xa3;" horiz-adv-x="551" d="M18 120Q47 128 71 143T112 185T137 249L148 300H54L76 407H170L194 528Q207 591 237 635T315 702T426 725Q479 725 525 713T606 683L551 570Q522 584 492 593T435 603Q398 603 375 584T342 519L319 407H465L443
300H297L288 259Q278 210 251 177T186 127H506L479 0H-6L18 120Z" />
<glyph unicode="&#xa4;" horiz-adv-x="551" d="M382 185Q361 174 337 167T286 160Q259 160 235 166T189 185L128 125L57 196L119 257Q106 279 100 303T93 353Q93 379 100 403T119 449L56 511L128 583L190 521Q211 533 236 540T286 547Q312 547 336 541T382 520L444
583L517 513L454 450Q466 430 473 405T480 353Q480 326 474 302T454 256L515 195L444 124L382 185ZM286 261Q312 261 333 273T367 307T380 353Q380 379 368 400T334 433T286 446Q261 446 240 434T207 400T194 353Q194 328 206 307T240 274T286 261Z" />
<glyph unicode="&#xa5;" horiz-adv-x="551" d="M143 0L166 108H43L61 195H184L198 262H75L94 349H190L96 714H241L297 426L478 714H630L383 349H482L463 262H340L326 195H449L431 108H308L285 0H143Z" />
<glyph unicode="&#xa6;" horiz-adv-x="551" d="M222 359V757H329V359H222ZM222 -227V171H329V-227H222Z" />
<glyph unicode="&#xa7;" horiz-adv-x="486" d="M174 -10Q120 -10 80 0T10 27V136Q45 115 88 100T178 85Q226 85 248 102T271 147Q271 161 264 172T239 195T193 221Q155 240 128 261T87 310T73 369Q73 402 85 428T120 476T172 516Q152 533 138 557T124 610Q124
660 151 694T225 747T334 765Q383 765 423 754T502 722L462 628Q435 644 401 656T324 669Q304 669 288 664T263 647T254 617Q254 597 274 581T336 546Q376 529 402 507T441 459T454 400Q454 363 441 336T406 289T360 254Q379 237 391 213T404 159Q404 105 375 67T294
10T174 -10ZM283 299Q302 311 317 332T333 382Q333 400 323 415T294 444T247 468Q231 460 219 448T199 420T192 387Q192 371 201 357T230 328T283 299Z" />
<glyph unicode="&#xa8;" horiz-adv-x="554" d="M452 621Q425 621 408 633T390 675Q390 713 409 732T464 752Q489 752 507 741T525 699Q525 664 508 643T452 621ZM265 621Q238 621 221 633T203 675Q203 713 222 732T277 752Q294 752 307 747T329 731T338 699Q338
664 321 643T265 621Z" />
<glyph unicode="&#xa9;" horiz-adv-x="832" d="M416 -10Q336 -10 269 17T153 93T76 210T49 357Q49 433 76 499T154 616T271 695T416 724Q492 724 558 697T675 621T754 504T783 357Q783 277 756 210T680 94T563 17T416 -10ZM431 128Q329 128 279 191T228 357Q228
424 252 475T322 556T435 586Q466 586 498 578T558 556L529 489Q504 502 481 508T436 515Q377 515 345 473T312 357Q312 281 340 240T435 198Q458 198 486 204T540 221V152Q516 142 491 135T431 128ZM416 54Q478 54 531 76T626 139T690 235T713 357Q713 420 691
475T628 572T534 637T416 661Q352 661 298 639T203 576T140 479T117 357Q117 291 139 236T201 140T295 77T416 54Z" />
<glyph unicode="&#xaa;" horiz-adv-x="379" d="M171 367Q149 367 127 379T89 418T73 491Q73 532 84 572T116 646T168 700T239 721Q275 721 296 707T331 672H335L353 715H430L353 373H276L281 420H278Q259 398 234 383T171 367ZM217 441Q236 441 250 451T275 478T291
514T301 553T304 587Q304 612 294 629T261 646Q242 646 227 633T200 597T184 548T178 497Q178 470 188 456T217 441Z" />
<glyph unicode="&#xab;" horiz-adv-x="566" d="M133 44L35 270V279L231 506L326 428L191 266L256 95L133 44ZM373 44L274 271V280L471 506L567 428L430 268L496 95L373 44Z" />
<glyph unicode="&#xac;" horiz-adv-x="572" d="M538 406V121H431V299H53V406H538Z" />
<glyph unicode="&#xad;" horiz-adv-x="323" d="M17 206L43 330H300L274 206H17Z" />
<glyph unicode="&#xae;" horiz-adv-x="832" d="M274 138V580H407Q489 580 527 546T565 446Q565 399 541 372T487 332L603 138H512L417 306H355V138H274ZM405 373Q444 373 463 393T483 444Q483 479 466 495T404 511H355V373H405ZM416 -10Q336 -10 269 17T153 93T76
210T49 357Q49 433 76 499T154 616T271 695T416 724Q492 724 558 697T675 621T754 504T783 357Q783 277 756 210T680 94T563 17T416 -10ZM416 54Q478 54 531 76T626 139T690 235T713 357Q713 420 691 475T628 572T534 637T416 661Q352 661 298 639T203 576T140
479T117 357Q117 291 139 236T201 140T295 77T416 54Z" />
<glyph unicode="&#xaf;" horiz-adv-x="428" d="M101 759L124 859H555L532 759H101Z" />
<glyph unicode="&#xb0;" horiz-adv-x="424" d="M212 386Q162 386 123 407T62 467T40 554Q40 604 62 642T122 702T212 724Q263 724 301 702T362 642T384 554Q384 505 362 467T302 408T212 386ZM213 480Q249 480 268 500T288 554Q288 589 268 610T213 631Q176 631
156 610T136 554Q136 521 156 501T213 480Z" />
<glyph unicode="&#xb1;" horiz-adv-x="572" d="M53 0V107H538V0H53ZM349 436H538V329H349V141H242V329H53V436H242V626H349V436Z" />
<glyph unicode="&#xb2;" horiz-adv-x="379" d="M56 415L73 496L206 603Q238 629 260 648T293 684T304 719Q304 739 292 749T262 759Q241 759 219 749T170 719L121 796Q157 824 197 838T291 853Q332 853 361 839T407 801T423 744Q423 703 408 674T362 618T286 559L223
513H392L372 415H56Z" />
<glyph unicode="&#xb3;" horiz-adv-x="379" d="M202 407Q165 407 131 414T72 434V528Q101 512 131 503T196 493Q231 493 256 507T281 551Q281 569 269 581T225 594H163L180 672H224Q251 672 271 678T301 696T312 727Q312 747 300 756T265 766Q243 766 220 758T173
734L133 807Q168 830 205 841T286 852Q337 852 367 838T410 800T424 749Q424 698 393 673T318 636V632Q359 623 376 601T393 547Q393 498 366 467T294 422T202 407Z" />
<glyph unicode="&#xb4;" horiz-adv-x="322" d="M113 618Q130 637 149 662T187 715T221 766H385V758Q374 745 354 725T308 682T259 640T215 606H113V618Z" />
<glyph unicode="&#xb5;" horiz-adv-x="610" d="M-33 -240L134 546H281L215 231Q211 214 209 198T207 170Q207 141 222 125T261 109Q296 109 322 138T368 214T398 317L446 546H593L477 0H367L376 86H371Q353 56 333 35T290 2T241 -10Q216 -10 198 0T169 23H164Q162
8 160 -11T155 -48T148 -84L115 -240H-33Z" />
<glyph unicode="&#xb6;" horiz-adv-x="655" d="M348 273Q333 269 316 267T277 264Q231 264 193 276T128 317T87 393T72 509Q72 581 88 629T133 706T202 747T292 760H587V-127H508V662H427V-127H348V273Z" />
<glyph unicode="&#xb7;" horiz-adv-x="286" d="M138 270Q105 270 86 286T66 336Q66 384 95 411T168 438Q201 438 221 421T241 371Q241 319 214 295T138 270Z" />
<glyph unicode="&#xb8;" horiz-adv-x="205" d="M-27 -240Q-50 -240 -70 -237T-101 -229V-147Q-90 -151 -74 -154T-40 -158Q-23 -158 -12 -154T4 -140T10 -118Q10 -101 -5 -90T-59 -75L-12 0H78L59 -35Q88 -45 108 -65T128 -122Q128 -155 112 -182T62 -224T-27 -240Z" />
<glyph unicode="&#xb9;" horiz-adv-x="379" d="M217 609Q224 640 231 666T244 710Q235 703 224 695T205 681L141 641L91 722L286 843H387L296 415H176L217 609Z" />
<glyph unicode="&#xba;" horiz-adv-x="368" d="M215 365Q150 365 117 402T83 505Q83 549 95 587T130 656T188 703T269 720Q339 720 369 681T399 581Q399 549 390 512T361 441T305 386T215 365ZM224 445Q242 445 255 458T278 492T291 539T296 588Q296 614 287 627T259
640Q241 640 227 627T204 592T190 546T185 499Q185 471 195 458T224 445Z" />
<glyph unicode="&#xbb;" horiz-adv-x="562" d="M331 44L238 120L374 283L308 454L428 504L527 279V270L331 44ZM93 44L0 120L136 283L70 454L190 504L289 279V270L93 44Z" />
<glyph unicode="&#xbc;" horiz-adv-x="834" d="M106 0L637 714H754L225 0H106ZM197 479Q204 510 211 536T224 580Q215 573 204 565T185 551L121 511L71 592L266 713H367L276 285H156L197 479ZM591 1L607 75H425L440 160L672 432H799L740 157H798L781 75H723L707
1H591ZM539 157H624L644 237Q649 257 652 269T663 306Q657 297 650 287T635 268T621 252L539 157Z" />
<glyph unicode="&#xbd;" horiz-adv-x="891" d="M104 0L635 714H752L223 0H104ZM197 479Q204 510 211 536T224 580Q215 573 204 565T185 551L121 511L71 592L266 713H367L276 285H156L197 479ZM482 -1L499 80L632 187Q664 213 686 232T719 268T730 303Q730 323
718 333T688 343Q667 343 645 333T596 303L547 380Q583 408 623 422T717 437Q758 437 787 423T833 385T849 328Q849 287 834 258T788 202T712 143L649 97H818L798 -1H482Z" />
<glyph unicode="&#xbe;" horiz-adv-x="863" d="M177 278Q140 278 106 285T47 305V399Q76 383 106 374T171 364Q206 364 231 378T256 422Q256 440 244 452T200 465H138L155 543H199Q226 543 246 549T276 567T287 598Q287 618 275 627T240 637Q218 637 195 629T148
605L108 678Q143 701 180 712T261 723Q312 723 342 709T385 671T399 620Q399 569 368 544T293 507V503Q334 494 351 472T368 418Q368 369 341 338T269 293T177 278ZM135 0L666 714H783L254 0H135ZM620 0L636 74H454L469 159L701 431H828L769 156H827L810 74H752L736
0H620ZM568 156H653L673 236Q678 256 681 268T692 305Q686 296 679 286T664 267T650 251L568 156Z" />
<glyph unicode="&#xbf;" horiz-adv-x="465" d="M338 307Q329 261 315 227T276 163T211 107Q178 85 158 69T128 36T118 -2Q118 -29 133 -44T183 -60Q218 -60 253 -46T333 -11L378 -119Q333 -143 279 -161T161 -180Q73 -180 24 -137T-26 -18Q-26 32 -7 67T45 131T121
187Q150 207 167 223T195 259T212 307H338ZM312 557Q354 557 371 536T388 488Q388 452 365 422T288 391Q255 391 235 410T215 462Q215 504 241 530T312 557Z" />
<glyph unicode="&#xc0;" horiz-adv-x="628" d="M-60 0L314 714H496L568 0H423L411 170H180L96 0H-60ZM241 297H404L391 481Q389 510 387 540T386 601H384Q374 574 362 548T335 490L241 297ZM414 774Q393 794 370 820T327 873T296 924V934H450Q456 912 464 887T483
836T506 786V774H414Z" />
<glyph unicode="&#xc1;" horiz-adv-x="628" d="M-60 0L314 714H496L568 0H423L411 170H180L96 0H-60ZM241 297H404L391 481Q389 510 387 540T386 601H384Q374 574 362 548T335 490L241 297ZM340 786Q357 805 376 830T414 883T448 934H612V926Q601 913 581 893T535
850T486 808T442 774H340V786Z" />
<glyph unicode="&#xc2;" horiz-adv-x="628" d="M-60 0L314 714H496L568 0H423L411 170H180L96 0H-60ZM241 297H404L391 481Q389 510 387 540T386 601H384Q374 574 362 548T335 490L241 297ZM215 786Q236 805 263 831T318 885T362 934H528Q538 910 553 883T584
831T614 786V774H514Q502 784 488 799T461 831T437 861Q408 837 379 815T320 774H215V786Z" />
<glyph unicode="&#xc3;" horiz-adv-x="628" d="M-60 0L314 714H496L568 0H423L411 170H180L96 0H-60ZM241 297H404L391 481Q389 510 387 540T386 601H384Q374 574 362 548T335 490L241 297ZM227 773Q237 826 256 859T303 909T365 925Q386 925 405 917T441 900T473
882T504 874Q523 874 537 886T561 926H638Q627 872 607 839T560 790T497 774Q475 774 456 782T420 799T387 817T354 825Q336 825 323 812T303 773H227Z" />
<glyph unicode="&#xc4;" horiz-adv-x="628" d="M-60 0L314 714H496L568 0H423L411 170H180L96 0H-60ZM241 297H404L391 481Q389 510 387 540T386 601H384Q374 574 362 548T335 490L241 297ZM520 789Q493 789 476 801T458 843Q458 881 477 900T532 920Q557 920
575 909T593 867Q593 832 576 811T520 789ZM333 789Q306 789 289 801T271 843Q271 881 290 900T345 920Q362 920 375 915T397 899T406 867Q406 832 389 811T333 789Z" />
<glyph unicode="&#xc5;" horiz-adv-x="628" d="M-60 0L314 714H496L568 0H423L411 170H180L96 0H-60ZM241 297H404L391 481Q389 510 387 540T386 601H384Q374 574 362 548T335 490L241 297ZM433 773Q379 773 345 803T311 889Q311 944 346 974T433 1005Q486 1005
521 975T556 890Q556 834 521 804T433 773ZM433 842Q453 842 467 855T481 889Q481 910 467 923T433 936Q414 936 400 923T386 889Q386 868 398 855T433 842Z" />
<glyph unicode="&#xc6;" horiz-adv-x="895" d="M-60 0L390 714H929L903 590H653L620 433H853L826 309H593L554 125H804L778 0H379L415 170H207L100 0H-60ZM287 297H442L504 590H465L287 297Z" />
<glyph unicode="&#xc7;" horiz-adv-x="613" d="M319 -10Q234 -10 176 24T89 120T59 266Q59 330 73 395T117 520T192 625T300 698T441 725Q504 725 555 711T652 670L594 550Q556 572 520 584T441 597Q396 597 360 579T297 529T251 456T223 368T214 273Q214 198
249 158T347 117Q390 117 430 127T518 155V29Q471 9 423 0T319 -10ZM263 -240Q240 -240 220 -237T189 -229V-147Q200 -151 216 -154T250 -158Q267 -158 278 -154T294 -140T300 -118Q300 -101 285 -90T231 -75L278 0H368L349 -35Q378 -45 398 -65T418 -122Q418 -155
402 -182T352 -224T263 -240Z" />
<glyph unicode="&#xc8;" horiz-adv-x="543" d="M26 0L177 714H577L550 589H302L269 433H501L474 308H242L203 127H452L426 0H26ZM377 774Q356 794 333 820T290 873T259 924V934H413Q419 912 427 887T446 836T469 786V774H377Z" />
<glyph unicode="&#xc9;" horiz-adv-x="543" d="M26 0L177 714H577L550 589H302L269 433H501L474 308H242L203 127H452L426 0H26ZM310 786Q327 805 346 830T384 883T418 934H582V926Q571 913 551 893T505 850T456 808T412 774H310V786Z" />
<glyph unicode="&#xca;" horiz-adv-x="543" d="M26 0L177 714H577L550 589H302L269 433H501L474 308H242L203 127H452L426 0H26ZM182 786Q203 805 230 831T285 885T329 934H495Q505 910 520 883T551 831T581 786V774H481Q469 784 455 799T428 831T404 861Q375
837 346 815T287 774H182V786Z" />
<glyph unicode="&#xcb;" horiz-adv-x="543" d="M26 0L177 714H577L550 589H302L269 433H501L474 308H242L203 127H452L426 0H26ZM488 789Q461 789 444 801T426 843Q426 881 445 900T500 920Q525 920 543 909T561 867Q561 832 544 811T488 789ZM301 789Q274 789
257 801T239 843Q239 881 258 900T313 920Q330 920 343 915T365 899T374 867Q374 832 357 811T301 789Z" />
<glyph unicode="&#xcc;" horiz-adv-x="383" d="M-29 0L-11 86L80 126L178 588L104 628L122 714H438L420 628L327 588L229 126L305 86L287 0H-29ZM285 774Q264 794 241 820T198 873T167 924V934H321Q327 912 335 887T354 836T377 786V774H285Z" />
<glyph unicode="&#xcd;" horiz-adv-x="383" d="M-29 0L-11 86L80 126L178 588L104 628L122 714H438L420 628L327 588L229 126L305 86L287 0H-29ZM211 786Q228 805 247 830T285 883T319 934H483V926Q472 913 452 893T406 850T357 808T313 774H211V786Z" />
<glyph unicode="&#xce;" horiz-adv-x="383" d="M-29 0L-11 86L80 126L178 588L104 628L122 714H438L420 628L327 588L229 126L305 86L287 0H-29ZM86 786Q107 805 134 831T189 885T233 934H399Q409 910 424 883T455 831T485 786V774H385Q373 784 359 799T332 831T308
861Q279 837 250 815T191 774H86V786Z" />
<glyph unicode="&#xcf;" horiz-adv-x="383" d="M-29 0L-11 86L80 126L178 588L104 628L122 714H438L420 628L327 588L229 126L305 86L287 0H-29ZM391 789Q364 789 347 801T329 843Q329 881 348 900T403 920Q428 920 446 909T464 867Q464 832 447 811T391 789ZM204
789Q177 789 160 801T142 843Q142 881 161 900T216 920Q233 920 246 915T268 899T277 867Q277 832 260 811T204 789Z" />
<glyph unicode="&#xd0;" horiz-adv-x="677" d="M16 291L43 416H379L352 291H16ZM26 0L177 714H366Q497 714 571 645T646 438Q646 359 629 291T577 170T492 78T378 20T235 0H26ZM254 126Q299 126 336 141T402 183T451 248T481 332T492 432Q492 513 456 551T356
589H302L204 126H254Z" />
<glyph unicode="&#xd1;" horiz-adv-x="758" d="M25 0L176 714H349L520 191H523Q526 214 531 247T542 315T554 378L626 714H763L612 0H439L267 537H263Q262 525 259 502T252 449T243 389T232 333L162 0H25ZM300 773Q310 826 329 859T376 909T438 925Q459 925 478
917T514 900T546 882T577 874Q596 874 610 886T634 926H711Q700 872 680 839T633 790T570 774Q548 774 529 782T493 799T460 817T427 825Q409 825 396 812T376 773H300Z" />
<glyph unicode="&#xd2;" horiz-adv-x="731" d="M330 -10Q241 -10 181 24T90 120T59 266Q59 324 70 380T101 487T154 582T228 657T322 707T436 725Q564 725 632 650T700 448Q700 390 690 334T660 226T609 132T537 57T445 8T330 -10ZM341 117Q371 117 398 129T447
163T488 215T518 282T538 361T545 447Q545 518 513 558T424 598Q392 598 364 586T313 550T271 496T240 428T221 350T214 267Q214 219 229 186T272 135T341 117ZM454 774Q433 794 410 820T367 873T336 924V934H490Q496 912 504 887T523 836T546 786V774H454Z" />
<glyph unicode="&#xd3;" horiz-adv-x="731" d="M330 -10Q241 -10 181 24T90 120T59 266Q59 324 70 380T101 487T154 582T228 657T322 707T436 725Q564 725 632 650T700 448Q700 390 690 334T660 226T609 132T537 57T445 8T330 -10ZM341 117Q371 117 398 129T447
163T488 215T518 282T538 361T545 447Q545 518 513 558T424 598Q392 598 364 586T313 550T271 496T240 428T221 350T214 267Q214 219 229 186T272 135T341 117ZM387 786Q404 805 423 830T461 883T495 934H659V926Q648 913 628 893T582 850T533 808T489 774H387V786Z"
/>
<glyph unicode="&#xd4;" horiz-adv-x="731" d="M330 -10Q241 -10 181 24T90 120T59 266Q59 324 70 380T101 487T154 582T228 657T322 707T436 725Q564 725 632 650T700 448Q700 390 690 334T660 226T609 132T537 57T445 8T330 -10ZM341 117Q371 117 398 129T447
163T488 215T518 282T538 361T545 447Q545 518 513 558T424 598Q392 598 364 586T313 550T271 496T240 428T221 350T214 267Q214 219 229 186T272 135T341 117ZM259 786Q280 805 307 831T362 885T406 934H572Q582 910 597 883T628 831T658 786V774H558Q546 784
532 799T505 831T481 861Q452 837 423 815T364 774H259V786Z" />
<glyph unicode="&#xd5;" horiz-adv-x="731" d="M330 -10Q241 -10 181 24T90 120T59 266Q59 324 70 380T101 487T154 582T228 657T322 707T436 725Q564 725 632 650T700 448Q700 390 690 334T660 226T609 132T537 57T445 8T330 -10ZM341 117Q371 117 398 129T447
163T488 215T518 282T538 361T545 447Q545 518 513 558T424 598Q392 598 364 586T313 550T271 496T240 428T221 350T214 267Q214 219 229 186T272 135T341 117ZM278 773Q288 826 307 859T354 909T416 925Q437 925 456 917T492 900T524 882T555 874Q574 874 588
886T612 926H689Q678 872 658 839T611 790T548 774Q526 774 507 782T471 799T438 817T405 825Q387 825 374 812T354 773H278Z" />
<glyph unicode="&#xd6;" horiz-adv-x="731" d="M330 -10Q241 -10 181 24T90 120T59 266Q59 324 70 380T101 487T154 582T228 657T322 707T436 725Q564 725 632 650T700 448Q700 390 690 334T660 226T609 132T537 57T445 8T330 -10ZM341 117Q371 117 398 129T447
163T488 215T518 282T538 361T545 447Q545 518 513 558T424 598Q392 598 364 586T313 550T271 496T240 428T221 350T214 267Q214 219 229 186T272 135T341 117ZM570 789Q543 789 526 801T508 843Q508 881 527 900T582 920Q607 920 625 909T643 867Q643 832 626
811T570 789ZM383 789Q356 789 339 801T321 843Q321 881 340 900T395 920Q412 920 425 915T447 899T456 867Q456 832 439 811T383 789Z" />
<glyph unicode="&#xd7;" horiz-adv-x="572" d="M443 575L518 502L369 353L516 205L443 131L294 278L147 132L74 206L219 353L73 500L147 575L294 429L443 575Z" />
<glyph unicode="&#xd8;" horiz-adv-x="730" d="M124 -42L49 14L108 88Q84 122 72 166T60 262Q60 318 70 373T100 481T151 577T224 654T319 706T438 725Q483 725 520 716T587 688L638 752L712 695L655 624Q678 590 688 549T699 458Q699 400 690 343T660 234T610
137T538 60T443 9T325 -10Q281 -10 244 -1T177 25L124 -42ZM338 114Q368 114 396 125T447 156T490 207T524 275T545 358T553 454Q553 462 553 473T551 493L263 132Q277 124 296 119T338 114ZM502 581Q488 590 469 596T425 602Q392 602 363 590T310 555T267 501T234
431T214 351T207 262Q207 251 208 239T211 213L502 581Z" />
<glyph unicode="&#xd9;" horiz-adv-x="692" d="M299 -10Q225 -10 173 15T95 86T68 193Q68 209 70 229T76 271L171 714H323L228 272Q225 254 223 236T220 203Q220 163 243 141T312 118Q352 118 379 134T424 183T454 267L549 714H700L602 253Q585 169 549 111T452
21T299 -10ZM431 774Q410 794 387 820T344 873T313 924V934H467Q473 912 481 887T500 836T523 786V774H431Z" />
<glyph unicode="&#xda;" horiz-adv-x="692" d="M299 -10Q225 -10 173 15T95 86T68 193Q68 209 70 229T76 271L171 714H323L228 272Q225 254 223 236T220 203Q220 163 243 141T312 118Q352 118 379 134T424 183T454 267L549 714H700L602 253Q585 169 549 111T452
21T299 -10ZM364 786Q381 805 400 830T438 883T472 934H636V926Q625 913 605 893T559 850T510 808T466 774H364V786Z" />
<glyph unicode="&#xdb;" horiz-adv-x="692" d="M299 -10Q225 -10 173 15T95 86T68 193Q68 209 70 229T76 271L171 714H323L228 272Q225 254 223 236T220 203Q220 163 243 141T312 118Q352 118 379 134T424 183T454 267L549 714H700L602 253Q585 169 549 111T452
21T299 -10ZM237 786Q258 805 285 831T340 885T384 934H550Q560 910 575 883T606 831T636 786V774H536Q524 784 510 799T483 831T459 861Q430 837 401 815T342 774H237V786Z" />
<glyph unicode="&#xdc;" horiz-adv-x="692" d="M299 -10Q225 -10 173 15T95 86T68 193Q68 209 70 229T76 271L171 714H323L228 272Q225 254 223 236T220 203Q220 163 243 141T312 118Q352 118 379 134T424 183T454 267L549 714H700L602 253Q585 169 549 111T452
21T299 -10ZM548 789Q521 789 504 801T486 843Q486 881 505 900T560 920Q585 920 603 909T621 867Q621 832 604 811T548 789ZM361 789Q334 789 317 801T299 843Q299 881 318 900T373 920Q390 920 403 915T425 899T434 867Q434 832 417 811T361 789Z" />
<glyph unicode="&#xdd;" horiz-adv-x="564" d="M148 0L206 273L91 714H243L306 425L489 714H656L354 273L296 0H148ZM298 786Q315 805 334 830T372 883T406 934H570V926Q559 913 539 893T493 850T444 808T400 774H298V786Z" />
<glyph unicode="&#xde;" horiz-adv-x="601" d="M26 0L177 714H328L305 602H340Q424 602 474 576T548 503T571 399Q571 337 550 289T487 208T387 159T257 142H207L177 0H26ZM277 267Q321 267 352 280T401 322T419 394Q419 434 395 456T322 478H278L234 267H277Z" />
<glyph unicode="&#xdf;" horiz-adv-x="659" d="M-49 -240Q-67 -240 -89 -237T-127 -228V-110Q-111 -115 -98 -117T-71 -120Q-41 -120 -20 -100T12 -33L136 556Q151 627 184 673T273 742T413 765Q516 765 575 721T635 604Q635 562 623 533T586 480T524 436Q499
421 483 408T466 376Q466 369 470 361T486 342T515 318Q556 287 580 254T604 171Q604 119 579 78T503 14T379 -10Q333 -10 297 -3T234 20V137Q261 121 293 110T360 99Q410 99 432 115T455 157Q455 171 449 182T429 208T389 241Q351 270 330 299T309 366Q309 399
322 422T357 464T410 499Q432 511 447 523T471 550T480 583Q480 613 461 631T400 649Q360 649 337 634T301 594T282 540L158 -55Q147 -109 123 -151T58 -216T-49 -240Z" />
<glyph unicode="&#xe0;" horiz-adv-x="592" d="M196 -10Q154 -10 119 10T64 74T44 190Q44 238 54 289T85 388T137 474T208 534T296 556Q330 556 354 546T397 516T427 473H431L460 546H578L462 0H343L351 75H347Q329 52 307 33T258 2T196 -10ZM255 111Q283 111
307 133T351 193T380 275Q384 295 386 314T389 350Q389 388 373 411T327 435Q305 435 286 422T250 385T222 332T204 267T197 196Q197 154 212 133T255 111ZM351 606Q330 626 307 652T264 705T233 756V766H387Q393 744 401 719T420 668T443 618V606H351Z" />
<glyph unicode="&#xe1;" horiz-adv-x="592" d="M196 -10Q154 -10 119 10T64 74T44 190Q44 238 54 289T85 388T137 474T208 534T296 556Q330 556 354 546T397 516T427 473H431L460 546H578L462 0H343L351 75H347Q329 52 307 33T258 2T196 -10ZM255 111Q283 111
307 133T351 193T380 275Q384 295 386 314T389 350Q389 388 373 411T327 435Q305 435 286 422T250 385T222 332T204 267T197 196Q197 154 212 133T255 111ZM285 618Q302 637 321 662T359 715T393 766H557V758Q546 745 526 725T480 682T431 640T387 606H285V618Z"
/>
<glyph unicode="&#xe2;" horiz-adv-x="592" d="M196 -10Q154 -10 119 10T64 74T44 190Q44 238 54 289T85 388T137 474T208 534T296 556Q330 556 354 546T397 516T427 473H431L460 546H578L462 0H343L351 75H347Q329 52 307 33T258 2T196 -10ZM255 111Q283 111
307 133T351 193T380 275Q384 295 386 314T389 350Q389 388 373 411T327 435Q305 435 286 422T250 385T222 332T204 267T197 196Q197 154 212 133T255 111ZM157 618Q178 637 205 663T260 717T304 766H470Q480 742 495 715T526 663T556 618V606H456Q444 616 430
631T403 663T379 693Q350 669 321 647T262 606H157V618Z" />
<glyph unicode="&#xe3;" horiz-adv-x="592" d="M196 -10Q154 -10 119 10T64 74T44 190Q44 238 54 289T85 388T137 474T208 534T296 556Q330 556 354 546T397 516T427 473H431L460 546H578L462 0H343L351 75H347Q329 52 307 33T258 2T196 -10ZM255 111Q283 111
307 133T351 193T380 275Q384 295 386 314T389 350Q389 388 373 411T327 435Q305 435 286 422T250 385T222 332T204 267T197 196Q197 154 212 133T255 111ZM176 605Q186 658 205 691T252 741T314 757Q335 757 354 749T390 732T422 714T453 706Q472 706 486 718T510
758H587Q576 704 556 671T509 622T446 606Q424 606 405 614T369 631T336 649T303 657Q285 657 272 644T252 605H176Z" />
<glyph unicode="&#xe4;" horiz-adv-x="592" d="M196 -10Q154 -10 119 10T64 74T44 190Q44 238 54 289T85 388T137 474T208 534T296 556Q330 556 354 546T397 516T427 473H431L460 546H578L462 0H343L351 75H347Q329 52 307 33T258 2T196 -10ZM255 111Q283 111
307 133T351 193T380 275Q384 295 386 314T389 350Q389 388 373 411T327 435Q305 435 286 422T250 385T222 332T204 267T197 196Q197 154 212 133T255 111ZM463 621Q436 621 419 633T401 675Q401 713 420 732T475 752Q500 752 518 741T536 699Q536 664 519 643T463
621ZM276 621Q249 621 232 633T214 675Q214 713 233 732T288 752Q305 752 318 747T340 731T349 699Q349 664 332 643T276 621Z" />
<glyph unicode="&#xe5;" horiz-adv-x="592" d="M196 -10Q154 -10 119 10T64 74T44 190Q44 238 54 289T85 388T137 474T208 534T296 556Q330 556 354 546T397 516T427 473H431L460 546H578L462 0H343L351 75H347Q329 52 307 33T258 2T196 -10ZM255 111Q283 111
307 133T351 193T380 275Q384 295 386 314T389 350Q389 388 373 411T327 435Q305 435 286 422T250 385T222 332T204 267T197 196Q197 154 212 133T255 111ZM372 605Q318 605 284 635T250 721Q250 776 285 806T372 837Q425 837 460 807T495 722Q495 666 460 636T372
605ZM372 674Q392 674 406 687T420 721Q420 742 406 755T372 768Q353 768 339 755T325 721Q325 700 337 687T372 674Z" />
<glyph unicode="&#xe6;" horiz-adv-x="872" d="M195 -10Q150 -10 116 12T63 79T44 188Q44 245 56 299T90 399T142 481T211 536T294 556Q328 556 351 547T393 520T426 476H431L459 546H551L542 502Q565 528 603 542T683 556Q762 556 804 514T847 407Q847 364 828
329T770 269T672 231T533 217H508Q507 211 507 207T507 198Q507 159 530 130T612 101Q649 101 690 113T765 143V32Q727 14 682 2T589 -10Q536 -10 502 3T444 46L436 0H344L351 71H346Q327 47 305 29T257 1T195 -10ZM253 109Q274 109 293 120T327 152T355 200T374
259Q379 281 382 304T385 351Q385 390 369 413T319 437Q297 437 278 423T243 385T216 330T199 265T193 195Q193 149 211 129T253 109ZM546 316Q603 316 638 328T689 360T706 404Q706 427 693 438T655 450Q628 450 601 433T554 386T524 316H546Z" />
<glyph unicode="&#xe7;" horiz-adv-x="484" d="M247 -10Q190 -10 144 12T71 83T44 206Q44 264 57 316T95 413T155 489T235 538T333 556Q379 556 418 548T495 522L448 409Q425 419 397 427T339 436Q305 436 278 416T233 364T205 292T195 214Q195 178 205 156T233
122T278 111Q313 111 345 122T412 150V29Q378 11 338 1T247 -10ZM166 -240Q143 -240 123 -237T92 -229V-147Q103 -151 119 -154T153 -158Q170 -158 181 -154T197 -140T203 -118Q203 -101 188 -90T134 -75L181 0H271L252 -35Q281 -45 301 -65T321 -122Q321 -155
305 -182T255 -224T166 -240Z" />
<glyph unicode="&#xe8;" horiz-adv-x="557" d="M260 -10Q196 -10 148 13T72 83T44 201Q44 270 63 333T121 447T217 526T349 556Q441 556 486 514T532 407Q532 364 513 329T455 269T357 231T218 217H193Q192 211 192 207T192 197Q192 153 217 127T289 101Q332 101
367 111T450 143V32Q407 11 363 1T260 -10ZM231 316Q288 316 323 328T374 360T391 404Q391 427 378 438T340 450Q313 450 286 433T239 386T209 316H231ZM349 606Q328 626 305 652T262 705T231 756V766H385Q391 744 399 719T418 668T441 618V606H349Z" />
<glyph unicode="&#xe9;" horiz-adv-x="557" d="M260 -10Q196 -10 148 13T72 83T44 201Q44 270 63 333T121 447T217 526T349 556Q441 556 486 514T532 407Q532 364 513 329T455 269T357 231T218 217H193Q192 211 192 207T192 197Q192 153 217 127T289 101Q332 101
367 111T450 143V32Q407 11 363 1T260 -10ZM231 316Q288 316 323 328T374 360T391 404Q391 427 378 438T340 450Q313 450 286 433T239 386T209 316H231ZM275 618Q292 637 311 662T349 715T383 766H547V758Q536 745 516 725T470 682T421 640T377 606H275V618Z" />
<glyph unicode="&#xea;" horiz-adv-x="557" d="M260 -10Q196 -10 148 13T72 83T44 201Q44 270 63 333T121 447T217 526T349 556Q441 556 486 514T532 407Q532 364 513 329T455 269T357 231T218 217H193Q192 211 192 207T192 197Q192 153 217 127T289 101Q332 101
367 111T450 143V32Q407 11 363 1T260 -10ZM231 316Q288 316 323 328T374 360T391 404Q391 427 378 438T340 450Q313 450 286 433T239 386T209 316H231ZM150 618Q171 637 198 663T253 717T297 766H463Q473 742 488 715T519 663T549 618V606H449Q437 616 423 631T396
663T372 693Q343 669 314 647T255 606H150V618Z" />
<glyph unicode="&#xeb;" horiz-adv-x="557" d="M260 -10Q196 -10 148 13T72 83T44 201Q44 270 63 333T121 447T217 526T349 556Q441 556 486 514T532 407Q532 364 513 329T455 269T357 231T218 217H193Q192 211 192 207T192 197Q192 153 217 127T289 101Q332 101
367 111T450 143V32Q407 11 363 1T260 -10ZM231 316Q288 316 323 328T374 360T391 404Q391 427 378 438T340 450Q313 450 286 433T239 386T209 316H231ZM455 621Q428 621 411 633T393 675Q393 713 412 732T467 752Q492 752 510 741T528 699Q528 664 511 643T455
621ZM268 621Q241 621 224 633T206 675Q206 713 225 732T280 752Q297 752 310 747T332 731T341 699Q341 664 324 643T268 621Z" />
<glyph unicode="&#xec;" horiz-adv-x="299" d="M18 0L133 546H284L167 0H18ZM462 606Q441 626 418 652T375 705T344 756V766H498Q504 744 512 719T531 668T554 618V606H462Z" />
<glyph unicode="&#xed;" horiz-adv-x="299" d="M18 0L133 546H284L167 0H18ZM139 618Q156 637 175 662T213 715T247 766H411V758Q400 745 380 725T334 682T285 640T241 606H139V618Z" />
<glyph unicode="&#xee;" horiz-adv-x="299" d="M18 0L133 546H284L167 0H18ZM268 618Q289 637 316 663T371 717T415 766H581Q591 742 606 715T637 663T667 618V606H567Q555 616 541 631T514 663T490 693Q461 669 432 647T373 606H268V618Z" />
<glyph unicode="&#xef;" horiz-adv-x="299" d="M18 0L133 546H284L167 0H18ZM317 621Q290 621 273 633T255 675Q255 713 274 732T329 752Q354 752 372 741T390 699Q390 664 373 643T317 621ZM130 621Q103 621 86 633T68 675Q68 713 87 732T142 752Q159 752 172
747T194 731T203 699Q203 664 186 643T130 621Z" />
<glyph unicode="&#xf0;" horiz-adv-x="577" d="M251 -10Q188 -10 140 11T63 79T35 198Q35 256 52 308T101 400T179 463T284 486Q334 486 364 468T412 425H417Q413 466 401 505T360 572L247 508L204 580L302 635Q291 646 275 655T241 674L299 765Q332 750 361 732T412
697L528 761L565 687L471 635Q498 601 513 563T535 481T542 388Q542 323 532 264T499 155T442 68T361 11T251 -10ZM258 100Q279 100 297 111T330 141T355 185T371 238T377 294Q377 311 373 326T359 352T337 369T305 376Q275 376 252 359T214 314T191 252T183 184Q183
145 202 123T258 100Z" />
<glyph unicode="&#xf1;" horiz-adv-x="605" d="M18 0L134 546H246L236 445H240Q261 478 286 503T343 542T412 556Q459 556 490 537T537 482T553 399Q553 381 550 359T542 311L477 0H330L397 319Q401 336 403 350T405 377Q405 408 392 422T352 437Q319 437 292
409T246 332T213 226L165 0H18ZM188 605Q198 658 217 691T264 741T326 757Q347 757 366 749T402 732T434 714T465 706Q484 706 498 718T522 758H599Q588 704 568 671T521 622T458 606Q436 606 417 614T381 631T348 649T315 657Q297 657 284 644T264 605H188Z" />
<glyph unicode="&#xf2;" horiz-adv-x="590" d="M253 -10Q192 -10 145 15T71 88T44 200Q44 258 55 311T90 408T148 486T229 537T334 556Q398 556 444 531T515 457T541 340Q541 285 530 233T497 137T440 60T359 9T253 -10ZM265 110Q289 110 309 122T345 157T371
208T387 271T393 340Q393 368 387 389T365 423T323 436Q296 436 275 421T239 382T213 326T197 263T192 200Q192 156 210 133T265 110ZM342 606Q321 626 298 652T255 705T224 756V766H378Q384 744 392 719T411 668T434 618V606H342Z" />
<glyph unicode="&#xf3;" horiz-adv-x="590" d="M253 -10Q192 -10 145 15T71 88T44 200Q44 258 55 311T90 408T148 486T229 537T334 556Q398 556 444 531T515 457T541 340Q541 285 530 233T497 137T440 60T359 9T253 -10ZM265 110Q289 110 309 122T345 157T371
208T387 271T393 340Q393 368 387 389T365 423T323 436Q296 436 275 421T239 382T213 326T197 263T192 200Q192 156 210 133T265 110ZM275 618Q292 637 311 662T349 715T383 766H547V758Q536 745 516 725T470 682T421 640T377 606H275V618Z" />
<glyph unicode="&#xf4;" horiz-adv-x="590" d="M253 -10Q192 -10 145 15T71 88T44 200Q44 258 55 311T90 408T148 486T229 537T334 556Q398 556 444 531T515 457T541 340Q541 285 530 233T497 137T440 60T359 9T253 -10ZM265 110Q289 110 309 122T345 157T371
208T387 271T393 340Q393 368 387 389T365 423T323 436Q296 436 275 421T239 382T213 326T197 263T192 200Q192 156 210 133T265 110ZM148 618Q169 637 196 663T251 717T295 766H461Q471 742 486 715T517 663T547 618V606H447Q435 616 421 631T394 663T370 693Q341
669 312 647T253 606H148V618Z" />
<glyph unicode="&#xf5;" horiz-adv-x="590" d="M253 -10Q192 -10 145 15T71 88T44 200Q44 258 55 311T90 408T148 486T229 537T334 556Q398 556 444 531T515 457T541 340Q541 285 530 233T497 137T440 60T359 9T253 -10ZM265 110Q289 110 309 122T345 157T371
208T387 271T393 340Q393 368 387 389T365 423T323 436Q296 436 275 421T239 382T213 326T197 263T192 200Q192 156 210 133T265 110ZM167 605Q177 658 196 691T243 741T305 757Q326 757 345 749T381 732T413 714T444 706Q463 706 477 718T501 758H578Q567 704
547 671T500 622T437 606Q415 606 396 614T360 631T327 649T294 657Q276 657 263 644T243 605H167Z" />
<glyph unicode="&#xf6;" horiz-adv-x="590" d="M253 -10Q192 -10 145 15T71 88T44 200Q44 258 55 311T90 408T148 486T229 537T334 556Q398 556 444 531T515 457T541 340Q541 285 530 233T497 137T440 60T359 9T253 -10ZM265 110Q289 110 309 122T345 157T371
208T387 271T393 340Q393 368 387 389T365 423T323 436Q296 436 275 421T239 382T213 326T197 263T192 200Q192 156 210 133T265 110ZM453 621Q426 621 409 633T391 675Q391 713 410 732T465 752Q490 752 508 741T526 699Q526 664 509 643T453 621ZM266 621Q239
621 222 633T204 675Q204 713 223 732T278 752Q295 752 308 747T330 731T339 699Q339 664 322 643T266 621Z" />
<glyph unicode="&#xf7;" horiz-adv-x="572" d="M53 299V406H538V299H53ZM295 108Q267 108 247 125T227 182Q227 223 247 239T295 256Q322 256 342 240T363 182Q363 143 343 126T295 108ZM295 449Q267 449 247 466T227 523Q227 564 247 580T295 597Q322 597 342
581T363 523Q363 484 343 467T295 449Z" />
<glyph unicode="&#xf8;" horiz-adv-x="585" d="M90 -50L21 3L79 75Q62 101 53 132T44 200Q44 258 55 311T90 408T148 486T229 537T334 556Q366 556 394 550T445 529L479 572L550 518L509 467Q525 442 533 410T541 340Q541 285 530 233T497 137T440 60T359 9T253
-10Q222 -10 194 -3T143 16L90 -50ZM265 105Q292 105 313 118T349 154T374 203T389 259T397 313Q398 318 398 323T398 333L223 116Q228 112 240 109T265 105ZM366 429Q360 434 348 437T323 441Q294 441 273 428T236 393T211 344T196 288T189 232Q188 226 188 220T188
208L366 429Z" />
<glyph unicode="&#xf9;" horiz-adv-x="605" d="M193 -10Q146 -10 115 9T69 64T54 147Q54 165 57 193T66 251L128 546H275L208 227Q204 211 202 196T200 169Q200 138 213 124T253 109Q287 109 313 137T360 214T392 320L440 546H587L471 0H359L369 101H364Q343 69
318 44T262 4T193 -10ZM355 606Q334 626 311 652T268 705T237 756V766H391Q397 744 405 719T424 668T447 618V606H355Z" />
<glyph unicode="&#xfa;" horiz-adv-x="605" d="M193 -10Q146 -10 115 9T69 64T54 147Q54 165 57 193T66 251L128 546H275L208 227Q204 211 202 196T200 169Q200 138 213 124T253 109Q287 109 313 137T360 214T392 320L440 546H587L471 0H359L369 101H364Q343 69
318 44T262 4T193 -10ZM288 618Q305 637 324 662T362 715T396 766H560V758Q549 745 529 725T483 682T434 640T390 606H288V618Z" />
<glyph unicode="&#xfb;" horiz-adv-x="605" d="M193 -10Q146 -10 115 9T69 64T54 147Q54 165 57 193T66 251L128 546H275L208 227Q204 211 202 196T200 169Q200 138 213 124T253 109Q287 109 313 137T360 214T392 320L440 546H587L471 0H359L369 101H364Q343 69
318 44T262 4T193 -10ZM161 618Q182 637 209 663T264 717T308 766H474Q484 742 499 715T530 663T560 618V606H460Q448 616 434 631T407 663T383 693Q354 669 325 647T266 606H161V618Z" />
<glyph unicode="&#xfc;" horiz-adv-x="605" d="M193 -10Q146 -10 115 9T69 64T54 147Q54 165 57 193T66 251L128 546H275L208 227Q204 211 202 196T200 169Q200 138 213 124T253 109Q287 109 313 137T360 214T392 320L440 546H587L471 0H359L369 101H364Q343 69
318 44T262 4T193 -10ZM466 621Q439 621 422 633T404 675Q404 713 423 732T478 752Q503 752 521 741T539 699Q539 664 522 643T466 621ZM279 621Q252 621 235 633T217 675Q217 713 236 732T291 752Q308 752 321 747T343 731T352 699Q352 664 335 643T279 621Z"
/>
<glyph unicode="&#xfd;" horiz-adv-x="519" d="M3 -240Q-23 -240 -40 -238T-69 -231V-114Q-56 -116 -43 -118T-12 -120Q35 -120 65 -93T117 -24L130 0L50 546H194L221 293Q224 271 225 245T226 195T227 150H231Q238 167 245 187T261 231T284 283L411 546H571L239
-78Q210 -133 174 -169T95 -222T3 -240ZM231 618Q248 637 267 662T305 715T339 766H503V758Q492 745 472 725T426 682T377 640T333 606H231V618Z" />
<glyph unicode="&#xfe;" horiz-adv-x="596" d="M-33 -240L179 760H328L299 621Q289 576 278 538T258 475H262Q279 498 299 516T344 545T399 556Q468 556 510 506T552 360Q552 304 541 250T508 149T456 67T386 11T299 -10Q270 -10 247 0T207 29T176 69H172Q170
40 166 5T151 -77L116 -240H-33ZM273 111Q295 111 314 124T349 161T376 215T393 280T399 350Q399 392 385 413T340 435Q314 435 289 413T244 352T214 269Q212 257 211 245T208 221T207 196Q207 158 223 135T273 111Z" />
<glyph unicode="&#xff;" horiz-adv-x="519" d="M3 -240Q-23 -240 -40 -238T-69 -231V-114Q-56 -116 -43 -118T-12 -120Q35 -120 65 -93T117 -24L130 0L50 546H194L221 293Q224 271 225 245T226 195T227 150H231Q238 167 245 187T261 231T284 283L411 546H571L239
-78Q210 -133 174 -169T95 -222T3 -240ZM667 621Q640 621 623 633T605 675Q605 713 624 732T679 752Q704 752 722 741T740 699Q740 664 723 643T667 621ZM480 621Q453 621 436 633T418 675Q418 713 437 732T492 752Q509 752 522 747T544 731T553 699Q553 664 536
643T480 621Z" />
<glyph unicode="&#x2013;" horiz-adv-x="480" d="M20 213L44 326H460L436 213H20Z" />
<glyph unicode="&#x2014;" horiz-adv-x="960" d="M20 213L44 326H940L916 213H20Z" />
<glyph unicode="&#x2018;" horiz-adv-x="217" d="M56 480Q71 515 92 555T137 636T184 714H296Q283 684 270 652T245 588T222 525T201 469H60L56 480Z" />
<glyph unicode="&#x2019;" horiz-adv-x="217" d="M51 469Q69 509 86 552T119 638T146 714H287L291 703Q276 669 255 629T211 548T164 469H51Z" />
<glyph unicode="&#x201a;" horiz-adv-x="280" d="M-50 -129Q-33 -89 -16 -46T16 40T45 116H186L190 105Q175 71 154 31T110 -50T62 -129H-50Z" />
<glyph unicode="&#x201c;" horiz-adv-x="433" d="M274 480Q290 515 310 555T355 636T402 714H512Q495 675 478 631T446 546T417 469H278L274 480ZM56 480Q72 515 92 555T137 636T184 714H294Q281 684 268 652T243 588T220 525T199 469H60L56 480Z" />
<glyph unicode="&#x201d;" horiz-adv-x="433" d="M270 469Q287 509 304 552T337 638T365 714H504L508 703Q493 669 472 629T428 547T380 469H270ZM52 469Q69 509 86 552T119 638T147 714H286L290 703Q275 669 254 629T210 547T162 469H52Z" />
<glyph unicode="&#x201e;" horiz-adv-x="497" d="M169 -129Q186 -89 203 -46T236 40T264 116H403L407 105Q392 71 371 31T327 -51T279 -129H169ZM-50 -129Q-33 -89 -16 -46T17 40T45 116H184L188 105Q173 71 152 31T108 -51T60 -129H-50Z" />
<glyph unicode="&#x2022;" horiz-adv-x="376" d="M208 210Q149 210 109 246T68 365Q68 421 86 455T137 504T208 520Q247 520 278 505T329 455T348 365Q348 310 329 276T279 226T208 210Z" />
<glyph unicode="&#x2039;" horiz-adv-x="326" d="M133 44L35 269V278L231 506L326 428L191 265L256 95L133 44Z" />
<glyph unicode="&#x203a;" horiz-adv-x="324" d="M93 44L0 120L136 283L70 454L190 504L289 279V270L93 44Z" />
</font>
</defs>
</svg>
